<svg width="50.000000" height="50.000000" viewBox="0 0 50 50" fill="none" xmlns="http://www.w3.org/2000/svg" xmlns:xlink="http://www.w3.org/1999/xlink">
	<desc>
			Created with Pixso.
	</desc>
	<defs>
		<clipPath id="clip1_224">
			<rect id="vector" width="50.000000" height="50.000000" fill="white" fill-opacity="0"/>
		</clipPath>
	</defs>
	<rect id="vector" width="50.000000" height="50.000000" fill="#FFFFFF" fill-opacity="0"/>
	<g clip-path="url(#clip1_224)">
		<path id="Shape" d="M45.3906 14.8018L43.7566 16.4358C40.2162 13.3499 35.6766 11.6238 30.9566 11.6238C27.7787 11.6238 24.6025 12.4409 21.8792 13.8928L28.7779 6.99414C29.3226 7.35669 29.9575 7.53882 30.5941 7.53882C31.5013 7.53882 32.4102 7.17627 33.1353 6.44946C34.5872 4.99756 34.5872 2.72681 33.1353 1.2749C32.4085 0.548096 31.5013 0.185547 30.5941 0.185547C29.6868 0.185547 28.7779 0.548096 28.0528 1.2749C26.8732 2.54639 26.691 4.36084 27.5081 5.72266L18.7932 14.4375L17.1592 12.8035L12.7115 17.251L14.3455 18.885L5.44855 27.7822C4.90381 27.4197 4.26892 27.2375 3.63232 27.2375C2.7251 27.2375 1.81616 27.6001 1.09106 28.3269C-0.36084 29.7788 -0.36084 32.0493 1.09106 33.5012C1.81787 34.1362 2.7251 34.5005 3.63232 34.5005C4.53961 34.5005 5.44855 34.1379 6.17365 33.4111C7.35321 32.2314 7.53534 30.4153 6.71832 28.9634L13.617 22.0647C9.98639 29.0554 10.8034 37.7703 16.1583 43.9421L14.5243 45.6665L19.0638 50.114L23.5115 45.6665L19.0638 41.2188L17.52 42.7627C12.2553 36.5889 11.983 27.6936 16.4307 21.1575L17.1575 21.8843L21.697 17.4365L20.88 16.7097C23.7855 14.6213 27.326 13.532 30.9566 13.532C35.2238 13.532 39.217 15.0757 42.4851 17.7991L40.8511 19.343L45.3906 23.7908L49.8383 19.343L45.3906 14.8035L45.3906 14.8018ZM29.3226 2.6355C29.6851 2.27295 30.1396 2.09082 30.5941 2.09082C31.0485 2.09082 31.5013 2.27295 31.8655 2.6355C32.5923 3.3623 32.5923 4.45166 31.8655 5.17676C31.503 5.53931 31.0485 5.72144 30.5941 5.72144C30.1396 5.72144 29.6868 5.53931 29.3226 5.17676C28.5958 4.54199 28.5958 3.3606 29.3226 2.6355ZM17.0673 19.3389L15.1609 17.4326L17.0673 15.5261L18.9736 17.4326L17.0673 19.3389ZM43.4843 19.3386L45.3906 21.2449L47.297 19.3386L45.3906 17.4321L43.4843 19.3386ZM3.63062 32.6777C4.08508 32.6777 4.53955 32.4956 4.9021 32.1331L4.9021 32.1313C5.62897 31.4963 5.62897 30.3169 4.9021 29.5901C4.5379 29.2275 4.08508 29.0454 3.63062 29.0454C3.17615 29.0454 2.72168 29.2258 2.35913 29.5901C1.99658 29.9543 1.81445 30.407 1.81445 30.8616C1.81445 31.4062 1.99658 31.8606 2.35913 32.1331C2.72339 32.4956 3.17615 32.6777 3.63062 32.6777ZM19.0638 47.572L20.9702 45.6658L19.0638 43.7593L17.1575 45.6658L19.0638 47.572Z" clip-rule="evenodd" fill="#333333" fill-opacity="1.000000" fill-rule="evenodd"/>
	</g>
</svg>
