<svg width="50.000000" height="50.000000" viewBox="0 0 50 50" fill="none" xmlns="http://www.w3.org/2000/svg" xmlns:xlink="http://www.w3.org/1999/xlink">
	<desc>
			Created with Pixso.
	</desc>
	<defs>
		<clipPath id="clip1_242">
			<rect id="speaker copy" width="50.000000" height="50.000000" fill="white" fill-opacity="0"/>
		</clipPath>
	</defs>
	<rect id="speaker copy" width="50.000000" height="50.000000" fill="#FFFFFF" fill-opacity="0"/>
	<g clip-path="url(#clip1_242)">
		<path id="Shape" d="M0.557434 30.3223L0.557434 18.8799L19.5945 18.8799L31.6087 8.92603L31.6087 39.9834L19.6696 30.3223L7.09576 30.3223L7.09576 40.1306L5.46156 40.1306L5.46156 30.3223L0.557434 30.3223ZM29.973 12.4028L20.6369 20.1384L20.6354 20.1401L20.1816 20.5156L10.3642 20.5156L10.3642 28.6882L20.2475 28.6882L29.973 36.5571L29.973 12.4028ZM2.19316 28.6865L2.19316 20.5142L8.73149 20.5142L8.73149 28.6865L2.19316 28.6865Z" clip-rule="evenodd" fill="#333333" fill-opacity="1.000000" fill-rule="evenodd"/>
		<path id="Shape" d="M42.92 10.36L41.74 11.54C45.56 14.53 48.04 19.18 48.04 24.4C48.04 29.77 45.43 34.52 41.43 37.5L42.61 38.68C46.9 35.4 49.67 30.23 49.67 24.4C49.67 18.72 47.03 13.66 42.92 10.36L42.92 10.36Z" fill="#333333" fill-opacity="1.000000" fill-rule="evenodd"/>
		<path id="Shape" d="M37.66 15.63L36.48 16.82C39 18.41 40.68 21.22 40.68 24.42C40.68 27.76 38.85 30.67 36.14 32.22L37.33 33.41C40.32 31.54 42.32 28.21 42.32 24.42C42.32 20.76 40.47 17.54 37.67 15.63L37.66 15.63Z" fill="#333333" fill-opacity="1.000000" fill-rule="evenodd"/>
	</g>
</svg>
